<?xml version="1.0" standalone="no"?>
<!DOCTYPE svg PUBLIC "-//W3C//DTD SVG 20010904//EN"
 "http://www.w3.org/TR/2001/REC-SVG-20010904/DTD/svg10.dtd">
<svg version="1.0" xmlns="http://www.w3.org/2000/svg"
 width="1920.000000pt" height="1920.000000pt" viewBox="0 0 1920.000000 1920.000000"
 preserveAspectRatio="xMidYMid meet">
<metadata>
Created by potrace 1.11, written by Peter Selinger 2001-2013
</metadata>
<g transform="translate(0.000000,1920.000000) scale(0.100000,-0.100000)"
fill="#000000" stroke="none">
<path d="M4433 15732 c-35 -2 -64 -6 -64 -10 -1 -4 -3 -41 -4 -82 -2 -41 -4
-75 -5 -75 -1 0 -2 -34 -2 -75 0 -41 -3 -79 -7 -85 -4 -5 -18 -43 -31 -83
l-25 -73 -170 4 c-170 3 -236 -4 -266 -29 -8 -8 -19 -14 -23 -14 -14 0 -200
-126 -241 -163 -22 -20 -43 -37 -47 -37 -5 0 -8 -9 -8 -20 0 -16 -7 -20 -30
-20 -22 0 -39 10 -66 40 -20 22 -43 40 -50 40 -8 0 -14 4 -14 9 0 5 -25 7 -56
5 -46 -4 -59 -2 -69 13 -10 13 -27 18 -62 18 -26 0 -57 5 -68 12 -16 9 -26 8
-53 -9 -25 -15 -36 -18 -45 -9 -18 18 -35 13 -63 -19 -22 -24 -30 -27 -46 -19
-24 13 -34 6 -48 -36 -10 -31 -14 -34 -40 -29 -26 6 -28 4 -35 -35 -4 -23 -11
-42 -16 -42 -5 -1 -13 -3 -19 -4 -5 -1 -14 -3 -20 -4 -5 0 -10 -9 -10 -18 0
-10 -9 -43 -19 -73 -21 -65 -26 -153 -11 -212 26 -102 116 -225 193 -264 36
-19 110 -77 145 -113 48 -51 60 -83 62 -161 6 -294 3 -411 -14 -438 -3 -5 -7
-21 -10 -36 -3 -16 -23 -101 -45 -190 -59 -242 -71 -300 -63 -306 11 -8 13
-30 3 -30 -5 0 -21 -20 -35 -44 -14 -25 -54 -71 -88 -103 -34 -32 -72 -68 -85
-80 -13 -13 -26 -23 -29 -23 -3 0 -13 -8 -24 -18 -36 -33 -156 -99 -225 -123
-38 -13 -72 -26 -75 -29 -3 -3 -12 -5 -20 -5 -8 1 -28 -3 -45 -7 -69 -19 -167
-29 -295 -30 -106 0 -250 9 -283 18 -10 3 -30 7 -45 10 -56 8 -106 22 -202 56
-120 42 -116 42 -142 24 -12 -9 -19 -16 -15 -16 4 0 3 -9 -4 -21 -9 -19 -4
-27 48 -77 97 -94 206 -176 217 -165 3 4 6 1 6 -5 0 -15 177 -102 275 -135 74
-24 199 -55 235 -56 8 -1 31 -3 50 -5 19 -2 91 -5 160 -6 157 -3 303 -20 340
-40 10 -5 25 -10 34 -10 8 0 25 -4 38 -9 13 -5 26 -9 30 -10 15 -3 144 -68
193 -96 53 -31 169 -125 196 -160 9 -11 26 -31 38 -45 11 -14 24 -29 29 -35 4
-5 19 -30 32 -55 14 -25 31 -51 38 -58 6 -7 12 -20 12 -28 0 -8 4 -14 10 -14
5 0 9 -3 8 -7 -1 -5 6 -26 16 -48 41 -93 62 -158 74 -235 9 -61 8 -252 -2
-320 -4 -30 -8 -63 -9 -72 -1 -10 -4 -18 -7 -18 -4 0 -7 -6 -8 -12 -2 -28 -20
-86 -40 -130 -12 -26 -22 -51 -22 -55 0 -4 -9 -19 -20 -33 -11 -14 -20 -33
-20 -42 0 -10 -4 -18 -8 -18 -5 0 -14 -16 -22 -35 -8 -19 -17 -35 -20 -35 -4
0 -19 -21 -34 -47 -32 -57 -70 -117 -145 -233 -31 -46 -59 -89 -63 -96 -4 -6
0 -22 10 -35 22 -31 23 -46 6 -60 -8 -6 -14 -8 -14 -5 0 4 -9 2 -19 -4 -14 -7
-21 -23 -23 -52 -2 -31 -8 -42 -21 -44 -27 -4 -46 -34 -41 -67 3 -24 -1 -30
-26 -39 -17 -5 -31 -15 -32 -21 -1 -13 -5 -45 -7 -64 0 -7 -7 -13 -15 -13 -25
0 -46 -30 -40 -55 4 -15 0 -28 -11 -36 -51 -42 -55 -49 -49 -79 5 -23 2 -31
-12 -36 -32 -11 -53 -46 -47 -76 4 -23 1 -28 -20 -33 -24 -6 -42 -42 -36 -71
4 -22 -3 -32 -26 -38 -25 -6 -29 -16 -26 -67 2 -18 -5 -29 -23 -39 -25 -13
-28 -19 -30 -67 -1 -11 -13 -32 -28 -46 -19 -18 -26 -32 -23 -53 2 -22 -4 -36
-27 -57 -23 -21 -29 -33 -24 -52 5 -18 -1 -32 -24 -55 -26 -26 -30 -37 -25
-64 6 -28 3 -34 -20 -44 -22 -10 -25 -17 -23 -52 1 -32 -3 -44 -26 -65 -23
-21 -26 -31 -21 -55 5 -24 2 -34 -16 -49 -16 -12 -23 -30 -25 -58 -1 -27 -10
-49 -24 -63 -17 -17 -21 -29 -16 -51 4 -22 0 -35 -16 -51 -14 -14 -21 -34 -22
-66 -1 -31 -6 -47 -16 -50 -25 -8 -31 -25 -25 -69 4 -26 2 -43 -4 -43 -24 0
-41 -32 -35 -65 5 -28 2 -37 -19 -55 -22 -19 -24 -26 -16 -53 5 -18 9 -32 9
-33 0 -1 -11 -13 -25 -28 -20 -21 -24 -34 -19 -60 4 -27 1 -37 -17 -49 -17
-13 -21 -25 -21 -61 1 -25 -3 -46 -8 -46 -19 0 -39 -54 -28 -75 9 -15 6 -22
-17 -41 -24 -19 -27 -27 -22 -60 5 -32 2 -41 -19 -61 -22 -20 -25 -30 -20 -59
6 -29 3 -38 -21 -58 -23 -20 -26 -27 -17 -47 12 -29 7 -59 -10 -59 -20 0 -35
-42 -24 -69 7 -20 4 -29 -18 -49 -22 -21 -25 -30 -20 -63 5 -31 2 -41 -17 -56
-22 -17 -26 -44 -14 -77 4 -10 -2 -22 -17 -31 -14 -9 -27 -30 -30 -49 -5 -27
-10 -33 -25 -29 -16 4 -23 -10 -49 -89 -29 -87 -69 -221 -77 -257 -3 -9 -12
-43 -21 -76 -19 -72 -23 -90 -29 -134 -3 -18 -7 -36 -9 -40 -2 -3 -7 -31 -11
-61 -4 -30 -9 -58 -11 -61 -2 -3 -6 -35 -9 -70 -3 -35 -8 -82 -10 -104 -22
-181 -25 -735 -5 -735 3 0 6 -11 6 -24 4 -54 44 -112 132 -184 34 -29 51 -51
51 -65 0 -12 2 -40 5 -62 3 -22 7 -62 10 -90 22 -205 57 -289 148 -350 78 -54
172 -56 279 -6 35 16 75 40 88 55 21 23 84 182 97 245 10 51 17 54 95 52 74
-3 97 -14 77 -38 -6 -7 -7 -13 -4 -13 4 0 2 -8 -3 -18 -6 -11 -12 -30 -15 -43
-3 -13 -14 -55 -26 -94 -12 -38 -23 -78 -25 -89 -2 -10 -9 -24 -16 -32 -6 -8
-9 -14 -5 -14 3 0 0 -16 -8 -35 -9 -20 -15 -36 -15 -38 3 -9 -38 -145 -84
-282 -22 -65 -31 -111 -32 -165 -1 -41 -5 -102 -9 -136 -7 -51 -5 -67 14 -106
33 -71 62 -80 245 -74 83 3 269 8 415 11 146 3 346 8 445 10 99 3 286 7 415
10 129 3 305 7 390 10 85 2 265 7 400 10 135 3 328 8 430 11 102 2 300 6 440
9 140 2 278 7 305 10 28 3 73 8 100 10 28 3 61 8 75 11 14 2 43 7 65 10 22 4
45 10 51 15 6 5 13 7 16 4 6 -6 88 63 87 73 -1 4 -1 9 1 12 10 27 6 58 -14
102 -20 45 -37 89 -41 108 -1 3 -11 37 -22 75 -12 39 -24 84 -27 100 -4 17 -9
41 -11 55 -3 14 -8 39 -11 55 -4 17 -7 39 -8 50 -2 11 -6 45 -10 75 -10 74
-14 145 -15 267 -1 118 -5 123 -98 128 -30 2 -57 5 -59 8 -3 3 4 14 16 25 19
17 21 27 15 74 -32 268 -39 376 -38 593 0 99 3 203 6 230 4 28 9 68 11 90 9
79 31 203 40 233 3 10 8 31 10 47 3 17 15 64 27 105 12 41 24 95 26 119 3 25
12 51 19 59 17 16 18 28 4 37 -19 12 -10 44 20 65 29 21 29 22 15 56 -14 34
-13 35 11 46 26 12 41 49 28 70 -16 25 -12 39 11 50 32 15 38 34 20 69 -15 27
-14 30 2 36 10 3 26 13 35 21 15 13 16 18 4 47 -16 36 -11 49 22 59 22 7 32
49 13 60 -5 4 -8 12 -7 19 3 21 17 38 27 32 15 -10 35 43 21 57 -14 14 -16 48
-4 48 5 0 18 9 30 20 19 18 20 24 10 43 -18 33 -16 40 14 59 28 18 37 51 18
63 -19 12 -10 40 20 57 30 17 39 41 20 53 -19 12 -10 45 14 57 29 13 41 37 26
52 -17 17 -12 54 9 61 31 10 44 31 29 46 -8 8 -13 21 -12 29 3 36 4 41 13 36
4 -3 16 3 25 12 13 16 14 23 3 51 -10 28 -10 34 5 42 9 5 24 16 32 25 14 14
14 18 1 44 -20 38 -20 37 16 56 26 13 30 20 25 42 -4 15 -8 34 -10 42 -1 8 10
23 26 32 30 19 36 40 15 60 -19 17 -10 45 18 52 29 7 35 24 22 56 -17 42 -16
49 6 57 12 4 26 6 31 5 8 -3 5 23 -7 74 -4 15 2 25 24 38 29 17 39 49 19 61
-15 9 -12 45 3 45 8 0 22 9 32 20 16 18 17 21 1 45 -15 23 -15 26 4 45 11 11
24 20 30 20 14 0 13 43 -1 57 -16 16 -4 42 26 53 25 10 35 43 15 55 -21 13
-10 45 21 60 26 14 29 20 24 46 -6 25 -3 30 19 39 14 5 26 16 26 24 0 9 7 37
16 63 9 26 17 53 18 58 15 81 145 324 195 362 9 7 13 13 9 13 -7 0 95 97 127
122 6 4 24 19 41 33 18 14 35 25 38 25 3 0 27 13 53 29 50 31 170 74 238 86
77 14 90 16 150 16 110 0 244 -21 298 -48 15 -7 27 -11 27 -8 0 3 10 0 23 -7
12 -7 24 -13 27 -13 14 -3 61 -20 105 -40 139 -63 271 -116 375 -149 63 -20
128 -41 144 -46 16 -5 33 -7 37 -4 5 3 9 1 9 -3 0 -5 8 -9 18 -9 19 -1 62 -10
90 -18 9 -3 29 -7 45 -10 15 -3 54 -10 86 -16 57 -10 79 -13 226 -27 93 -8
392 -9 480 0 39 4 93 9 120 12 28 3 64 7 80 9 17 3 48 8 70 11 22 4 60 11 85
16 25 5 56 11 70 13 14 2 35 6 47 10 21 7 43 12 97 22 16 2 32 7 36 9 4 2 20
6 36 9 16 3 94 24 174 46 193 54 183 51 198 52 6 1 12 5 12 9 0 4 16 10 36 14
20 3 48 11 63 17 14 6 31 12 36 14 17 4 149 52 180 65 17 7 32 13 35 14 3 1
14 5 25 10 55 22 86 34 90 35 4 1 69 29 175 77 94 42 226 108 237 118 6 7 8
17 3 25 -9 15 -3 59 10 75 11 13 5 54 -9 68 -5 5 -3 20 8 38 13 23 14 32 4 49
-16 25 -17 62 -1 78 9 9 8 21 -1 53 -10 34 -10 47 0 65 9 18 10 30 1 48 -11
24 -11 32 2 76 4 16 1 36 -8 55 -13 26 -13 31 1 56 15 25 15 32 3 54 -11 21
-12 32 -1 61 10 28 10 41 0 65 -9 24 -9 38 1 70 11 33 11 42 1 49 -13 7 -12
40 2 97 3 13 0 27 -9 34 -17 14 -18 41 -3 56 6 6 13 53 16 105 2 51 8 116 13
143 5 28 12 61 14 75 3 14 17 57 31 95 15 39 29 78 32 88 3 9 9 17 13 17 4 0
13 13 19 28 7 16 39 58 71 93 33 35 60 67 60 72 0 4 7 7 15 7 8 0 15 5 15 10
0 6 7 10 15 10 9 0 18 6 21 13 2 7 30 26 62 43 31 16 59 32 62 36 3 3 19 10
35 14 17 4 35 10 40 14 13 9 66 23 145 36 91 16 197 20 460 17 400 -5 428 -5
685 2 127 3 248 5 270 4 22 -1 54 -1 70 -1 54 1 90 2 108 2 9 -1 32 -1 50 0
17 0 75 0 127 0 52 0 301 1 552 3 l457 3 23 29 c18 23 24 46 28 104 4 61 9 76
25 85 11 6 23 15 27 20 7 10 106 12 115 2 9 -9 -2 -17 -25 -19 -11 0 -19 -4
-17 -7 2 -3 58 -6 124 -5 67 1 122 -1 122 -4 4 -19 10 -86 13 -144 2 -37 7
-71 10 -74 10 -10 117 -5 130 6 6 5 62 9 124 10 130 0 148 4 158 34 6 18 14
115 15 190 0 18 29 25 29 6 0 -5 5 -7 10 -4 5 3 10 2 10 -2 0 -8 58 -10 252
-12 l56 -1 -2 -32 c-2 -18 -1 -37 2 -42 2 -4 6 -37 7 -72 1 -35 5 -67 9 -71
14 -15 128 -12 152 3 22 15 24 15 30 0 3 -9 11 -13 17 -9 6 3 34 8 61 9 28 1
51 3 51 4 0 1 20 4 43 5 66 5 79 22 81 109 2 76 8 127 17 135 3 3 50 6 104 6
77 1 100 -1 100 -12 0 -7 -6 -13 -12 -13 -10 0 -10 -2 -1 -8 6 -4 41 -6 77 -6
65 1 66 1 67 -25 8 -205 8 -204 51 -202 13 0 57 2 98 3 41 1 78 6 82 12 8 13
130 15 147 2 19 -14 44 -17 52 -5 3 6 25 12 47 14 23 2 45 6 50 9 5 3 31 61
58 128 38 99 48 134 47 180 -1 54 0 58 48 109 27 29 49 60 50 68 0 9 2 25 5
36 11 55 17 256 18 605 1 342 3 389 18 411 9 14 18 39 20 55 3 25 7 29 34 29
77 0 95 29 120 203 14 95 21 596 10 732 -10 132 -40 181 -106 175 -45 -4 -60
9 -60 51 0 23 -9 44 -30 67 -16 19 -30 44 -30 56 0 26 -15 56 -41 85 -11 11
-19 26 -19 33 0 7 -3 13 -8 13 -4 0 -12 9 -17 19 -37 72 -121 203 -147 230
-35 36 -83 59 -137 66 -20 3 -129 8 -242 10 -228 5 -218 8 -239 -60 -7 -22
-15 -44 -19 -50 -3 -5 -6 -12 -7 -15 -1 -3 -5 -20 -9 -39 -5 -20 -26 -52 -52
-77 -23 -24 -43 -48 -43 -54 0 -11 -2221 -9 -5505 5 -643 3 -1728 7 -2410 10
-3657 14 -3788 15 -3801 26 -7 6 -13 18 -12 27 0 9 -5 44 -12 77 -6 33 -14 74
-17 90 -7 39 -11 59 -13 65 -2 6 -6 27 -8 51 -2 19 -61 89 -75 89 -5 0 -25 15
-43 34 l-33 34 -157 1 c-87 1 -160 3 -163 4 -3 1 -34 1 -68 -1z m-1178 -788
c35 -16 62 -38 92 -77 l21 -27 -54 -81 c-65 -95 -110 -182 -162 -310 -10 -25
-13 -26 -60 -18 -128 20 -193 103 -195 250 -1 47 3 82 11 91 6 8 9 18 5 21 -3
4 -1 7 5 7 7 0 12 6 12 13 0 29 87 111 130 122 3 1 12 4 20 8 36 14 48 15 95
15 28 -1 64 -7 80 -14z m7200 -2817 c237 -55 350 -113 498 -253 24 -23 57 -59
73 -80 16 -22 37 -48 47 -58 9 -11 17 -25 17 -32 0 -7 4 -14 9 -16 13 -5 87
-164 115 -248 24 -72 29 -95 42 -169 3 -18 8 -43 10 -55 6 -24 5 -239 -1 -276
-12 -82 -19 -113 -40 -185 -68 -234 -192 -438 -350 -570 -26 -22 -52 -45 -59
-50 -41 -37 -287 -175 -311 -175 -3 0 -27 -10 -53 -21 -25 -12 -51 -22 -57
-24 -5 -1 -17 -4 -25 -7 -48 -18 -145 -51 -154 -53 -6 -1 -18 -5 -26 -8 -19
-8 -166 -46 -204 -53 -16 -3 -32 -7 -36 -9 -3 -2 -29 -7 -56 -11 -27 -3 -58
-8 -69 -10 -51 -11 -144 -24 -225 -31 -87 -9 -438 -9 -525 0 -108 11 -200 23
-200 27 0 1 -13 3 -30 5 -64 8 -93 14 -175 35 -47 12 -93 23 -102 25 -9 2 -26
9 -37 15 -12 6 -21 8 -21 5 0 -4 -6 -3 -12 2 -7 4 -15 8 -18 9 -3 0 -14 4 -25
8 -11 5 -38 15 -60 23 -227 83 -458 312 -544 538 -12 33 -27 67 -31 77 -5 9
-17 54 -27 100 -19 88 -25 326 -10 403 4 22 10 53 13 69 3 16 8 34 12 40 3 6
8 17 9 24 7 31 10 40 31 86 12 27 22 52 22 57 0 5 5 9 11 9 5 0 8 4 5 8 -6 10
99 166 149 221 64 71 177 163 251 206 37 22 71 40 74 40 18 -2 86 45 88 61 5
32 85 75 167 88 17 3 76 12 133 21 l103 16 142 -143 c79 -79 159 -157 179
-173 82 -69 88 -108 48 -327 -15 -78 -15 -206 0 -273 5 -27 13 -63 16 -80 3
-16 8 -37 11 -45 3 -8 7 -19 8 -25 7 -27 48 -122 71 -164 112 -202 296 -364
505 -445 126 -49 194 -60 359 -61 183 0 214 6 205 38 -14 46 -40 60 -135 73
-34 5 -170 27 -180 29 -101 26 -182 62 -265 119 -91 63 -195 172 -232 246 -10
19 -21 37 -24 40 -8 8 -59 132 -65 160 -3 14 -7 36 -10 50 -3 14 -9 41 -13 60
-8 37 -7 170 2 230 11 70 45 177 78 245 18 39 36 72 39 75 3 3 15 25 27 50 13
25 39 74 58 110 61 114 45 161 -52 152 -118 -10 -118 -10 -121 24 l-3 32 70 0
c38 0 78 3 88 6 10 3 32 8 50 11 41 7 55 13 133 57 79 45 186 84 277 102 63
12 289 14 338 3z m-8569 -7302 c16 -3 50 -8 76 -12 42 -5 49 -10 66 -44 18
-35 20 -67 10 -148 -1 -7 -17 -29 -36 -47 -27 -26 -44 -34 -72 -34 -70 0 -138
71 -147 154 -5 48 45 155 67 141 3 -2 20 -7 36 -10z"/>
<path d="M16787 12353 c-3 -5 8 -8 24 -8 16 0 29 3 29 8 0 4 -11 7 -24 7 -14
0 -27 -3 -29 -7z"/>
</g>
</svg>
